<?xml version="1.0" encoding="UTF-8" standalone="no"?>
<!-- Generator: Adobe Illustrator 15.0.2, SVG Export Plug-In . SVG Version: 6.00 Build 0)  -->
<svg
  xmlns:rdf="http://www.w3.org/1999/02/22-rdf-syntax-ns#"
  xmlns="http://www.w3.org/2000/svg"
  xmlns:x="http://ns.adobe.com/Extensibility/1.0/"
  xmlns:dc="http://purl.org/dc/elements/1.1/"
  xmlns:i="http://ns.adobe.com/AdobeIllustrator/10.0/"
  xmlns:cc="http://web.resource.org/cc/"
  xmlns:xlink="http://www.w3.org/1999/xlink"
  xmlns:graph="http://ns.adobe.com/Graphs/1.0/"
  xmlns:svg="http://www.w3.org/2000/svg"
  xmlns:inkscape="http://www.inkscape.org/namespaces/inkscape"
  xmlns:sodipodi="http://sodipodi.sourceforge.net/DTD/sodipodi-0.dtd"
  xmlns:ns1="http://sozi.baierouge.fr"
  id="Layer_1"
  enable-background="new 231.5 159 554 395"
  xml:space="preserve"
  viewBox="231.5 159 554 395"
  version="1.1"
  y="0px"
  x="0px"
>

<path
stroke="#b8b8b8"
      stroke-width="12"
      stroke-miterlimit="10"
      d="m661.13 258.88c26.845-7.315 54.431-11.45 82.056-14.445-15.561 64.245-31.176 128.48-46.836 192.7-6.899 28.516-13.899 57.01-20.685 85.551-32.84-7.91-66.825-12.641-100.62-9.705-24.32 1.949-48.404 8.215-70.185 19.305-0.92 0.48-2.12 0.73-3.04 0.119-25.89-17.084-56.79-26.664-87.85-26.574-25.314-0.6-50.45 5.365-73.734 15.04-2.415 0.93-4.7 2.175-7.17 2.965-16.125-73.39-32.665-146.68-48.95-220.04-2.18-10.265-4.775-20.455-6.565-30.8 33.53 2.65 66.73 8.645 99.4 16.555 21.085 5.155 42.045 11.141 62.095 19.54 15.82 6.83 32 14.391 44.015 27.105 2.745 3.34 5.06 7.035 6.975 10.9 1.08-0.455 2-1.195 2.96-1.86 17.73-12.36 35.415-24.825 53.805-36.195 16.14-9.93 32.74-19.155 49.995-27.005 20.72-9.5 42.28-17.22 64.31-23.16m-7.57 4.98c-21.33 6.225-42.164 14.16-62.205 23.76-18.295 8.8-35.895 19-52.949 30-16.689 10.765-32.865 22.29-49.185 33.595-2.255-4.2-4.525-8.42-7.44-12.205-1.79-2.38-4.11-4.27-6.32-6.23-8.585-7.275-18.61-12.57-28.765-17.295-16.255-7.535-33.285-13.275-50.525-18.08-20.485-5.69-41.245-10.36-62.165-14.16-17.604-3.23-35.354-5.695-53.189-7.215 13.055 59.435 26.47 118.8 39.67 178.2 4.83 21.936 9.85 43.841 14.485 65.815 16.045-6.88 32.8-12.271 50.075-14.97 18.811-2.915 38.12-2.805 56.88 0.455 21.74 3.88 42.655 12.244 61.11 24.365 0.795-0.025 1.44-0.601 2.165-0.891 20.82-10.305 43.635-16.359 66.734-18.525 34.086-3.274 68.49 0.961 101.66 8.94 21.779-90.655 44.194-181.16 65.909-271.83-29.01 3.27-57.94 7.97-85.96 16.27z"
  />
<path
      stroke="#b8b8b8"
      stroke-width="12"
      stroke-miterlimit="10"
      d="m620.95 301.36c28.569-8.23 58.069-12.725 87.63-15.44-19.305 70.07-38.99 140.04-58.32 210.1-19.835-4.209-40-7.08-60.279-7.75-27.23-0.91-54.91 2.24-80.465 12.045-0.05-49.399 0.025-98.799-0.035-148.2 15.581-9.495 31.459-18.53 47.885-26.49 20.41-9.99 41.74-18.06 63.59-24.27z"
      fill="transparent"
  />
<path
      stroke="#b8b8b8"
      stroke-width="12"
      stroke-miterlimit="10"
      d="m304.82 307.66c25.6 1.77 51 5.685 76.165 10.62 25.58 5.24 51.21 11.255 75.27 21.62 8.22 3.525 16.285 7.655 23.255 13.325-0.02 46.92-0.005 93.834-0.01 140.75-18.58-7.239-38.545-10.85-58.48-10.694-23.375-0.226-46.53 5.03-68.255 13.44-13.97-55.621-28.31-111.15-42.42-166.73-1.83-7.43-3.89-14.83-5.52-22.33z"
      fill="transparent"
  />
<metadata
    ><rdf:RDF
      ><cc:Work
        ><dc:format
          >image/svg+xml</dc:format><dc:type
            rdf:resource="http://purl.org/dc/dcmitype/StillImage"
        /><cc:license
            rdf:resource="http://creativecommons.org/licenses/publicdomain/"
        /><dc:publisher
          ><cc:Agent
              rdf:about="http://openclipart.org/"
            ><dc:title
              >Openclipart</dc:title></cc:Agent></dc:publisher><dc:title
          >Open Book - Home 001</dc:title><dc:date
          >2012-06-02T14:24:19</dc:date><dc:description
        /><dc:source
          >https://openclipart.org/detail/170356/open-book---home-001-by-tikigiki-170356</dc:source><dc:creator
          ><cc:Agent
            ><dc:title
              >TikiGiki</dc:title></cc:Agent></dc:creator><dc:subject
          ><rdf:Bag
            ><rdf:li
              >abstract</rdf:li><rdf:li
              >book</rdf:li><rdf:li
              >free form</rdf:li><rdf:li
              >freeform</rdf:li><rdf:li
              >library</rdf:li><rdf:li
              >magazine</rdf:li><rdf:li
              >retro</rdf:li><rdf:li
              >shape</rdf:li><rdf:li
              >shapes</rdf:li></rdf:Bag></dc:subject></cc:Work><cc:License
          rdf:about="http://creativecommons.org/licenses/publicdomain/"
        ><cc:permits
            rdf:resource="http://creativecommons.org/ns#Reproduction"
        /><cc:permits
            rdf:resource="http://creativecommons.org/ns#Distribution"
        /><cc:permits
            rdf:resource="http://creativecommons.org/ns#DerivativeWorks"
        /></cc:License></rdf:RDF></metadata></svg>